<svg version="1.1" id="Layer_1" xmlns="http://www.w3.org/2000/svg" xmlns:xlink="http://www.w3.org/1999/xlink" x="0px" y="0px"
	 width="100%" viewBox="0 0 1024 640" enable-background="new 0 0 1024 640" xml:space="preserve">
<path fill="#000000" opacity="1.000000" stroke="none" 
	d="
M315.407074,414.465637 
	C304.251099,418.537170 293.423737,422.374725 282.708588,426.503448 
	C278.981781,427.939423 276.819794,427.383881 275.462677,423.452820 
	C272.692810,415.429596 269.890045,407.407959 266.744598,399.527863 
	C264.841125,394.759247 266.451355,392.723846 270.981628,391.128479 
	C286.997375,385.488312 302.909180,379.552094 318.845062,373.686371 
	C348.361237,362.821930 377.864410,351.921997 407.378571,341.052063 
	C412.546082,339.148865 412.945374,339.628448 414.355408,344.986328 
	C424.695404,384.275574 448.426331,411.753387 487.894958,422.707733 
	C531.335449,434.764465 568.535950,422.441895 597.906189,388.302826 
	C611.474854,372.530914 618.572693,353.687531 620.879089,332.850067 
	C622.455444,318.608276 620.464478,304.984222 616.567566,291.465424 
	C615.563049,287.980530 615.661499,286.066284 620.042419,286.097076 
	C653.356323,286.331238 686.670898,286.543884 719.985474,286.591125 
	C736.478882,286.614502 752.975647,286.395172 769.464905,286.022888 
	C774.227905,285.915344 776.159180,287.424652 776.746521,292.366638 
	C778.900391,310.489136 778.598022,328.578125 777.260315,346.717499 
	C776.942139,351.031891 775.067688,352.310760 770.921021,352.284363 
	C748.922913,352.144348 726.923401,352.215118 704.924438,352.257568 
	C703.167175,352.260956 701.318115,351.799774 698.801636,353.223877 
	C709.433167,357.215454 719.430908,361.031555 729.474243,364.723907 
	C741.810547,369.259216 754.149963,373.791351 766.561401,378.114166 
	C770.992310,379.657440 771.769958,381.887360 770.474731,386.399841 
	C766.150757,401.464081 761.372681,416.337738 755.067139,430.704742 
	C752.124023,437.410645 751.880066,437.578735 745.202576,435.121307 
	C721.143311,426.266846 697.081421,417.419586 673.005676,408.609985 
	C671.814514,408.174103 670.672546,407.255280 669.210876,407.742798 
	C668.464417,409.239227 669.739380,409.864197 670.531433,410.531982 
	C690.398315,427.281464 710.268616,444.027100 730.192383,460.708771 
	C735.905090,465.491821 735.977478,465.446167 731.887695,471.407623 
	C723.193420,484.080688 713.084656,495.583466 702.731506,506.897186 
	C700.154053,509.713745 698.280762,509.727600 695.279907,507.160187 
	C673.378357,488.421844 651.312317,469.875641 629.279419,451.290985 
	C627.401367,449.706787 625.386841,448.284302 622.984253,446.440155 
	C622.307312,449.093933 623.625244,450.451477 624.441223,451.877502 
	C639.169128,477.613190 653.821472,503.393341 668.777283,528.996155 
	C671.158752,533.072815 670.317017,535.047363 666.798889,537.444702 
	C654.523926,545.809265 641.718750,553.220825 628.437683,559.860657 
	C625.248535,561.455017 623.494263,561.102661 621.654907,557.859924 
	C605.626953,529.604126 589.458313,501.427917 573.299988,473.246124 
	C572.090820,471.137177 570.638306,469.167755 568.823975,467.304108 
	C567.861084,472.901245 569.692932,478.109985 570.572876,483.358795 
	C574.367981,505.995880 578.391113,528.594971 582.380859,551.199097 
	C583.564880,557.906860 584.869995,564.594238 586.201416,571.274658 
	C586.807678,574.316895 585.735962,575.843933 582.681641,576.658752 
	C569.460938,580.186035 555.990784,582.230103 542.439270,583.885803 
	C538.457947,584.372192 537.170715,582.236511 536.598022,578.802856 
	C534.710510,567.485901 532.703430,556.188782 530.735657,544.885254 
	C528.168396,530.138184 525.593750,515.392456 523.024170,500.645844 
	C521.253418,490.483368 519.476135,480.321930 517.729492,470.155304 
	C517.510132,468.878540 517.556885,467.533936 516.091736,466.293884 
	C514.210144,470.335114 513.950317,474.486481 513.242920,478.486572 
	C509.448669,499.943695 505.750854,521.417908 502.018646,542.885986 
	C499.939178,554.847046 497.716553,566.785889 495.852203,578.780334 
	C495.182892,583.086182 493.189026,584.410034 489.087860,583.789856 
	C477.075989,581.973450 465.062042,580.221436 453.254974,577.252930 
	C449.384460,576.279724 447.824402,574.892883 448.693359,570.334717 
	C452.087860,552.528992 454.898102,534.612732 458.035919,516.756958 
	C461.662598,496.119263 465.402435,475.501434 469.104034,454.876953 
	C469.389954,453.283875 470.193298,451.706360 468.926239,449.776947 
	C466.539581,450.728760 465.811615,453.066895 464.734253,454.954163 
	C445.904968,487.936462 427.135834,520.953186 408.319733,553.942993 
	C404.888062,559.959595 404.820801,559.916504 398.796356,556.861633 
	C389.572510,552.184448 380.851410,546.656433 372.056641,541.240540 
	C368.252258,538.897705 367.258759,536.847717 369.771393,532.495117 
	C390.590240,496.430267 411.146271,460.213715 431.769073,424.035767 
	C432.816620,422.198120 434.096375,420.435638 434.378815,418.311798 
	C432.939362,417.319885 432.344696,418.469849 431.673706,419.037140 
	C398.984528,446.673218 366.281738,474.293396 333.688171,502.041901 
	C330.599365,504.671570 328.662994,504.799316 325.860229,501.692108 
	C318.819977,493.887268 312.201324,485.761841 305.801971,477.432434 
	C303.904602,474.962830 304.310730,473.544281 306.550293,471.662842 
	C329.893158,452.052643 353.185089,432.381744 376.456604,412.686798 
	C389.542664,401.611877 402.564087,390.460602 415.614624,379.343719 
	C415.406738,378.900909 415.198883,378.458099 414.990997,378.015289 
	C381.920593,390.125519 348.850189,402.235779 315.407074,414.465637 
z"/>
<path fill="#000000" opacity="1.000000" stroke="none" 
	d="
M353.000061,304.692078 
	C371.831726,304.659302 390.164551,304.728088 408.494049,304.514221 
	C412.467072,304.467896 413.569489,305.878937 412.936737,309.526031 
	C411.558289,317.471252 411.710266,325.482025 412.630829,333.434937 
	C413.046021,337.021973 411.522247,337.941467 408.535645,337.951050 
	C404.702820,337.963318 400.869812,337.926605 397.036896,337.925629 
	C352.706848,337.914337 308.376801,337.912384 264.046753,337.890442 
	C256.035278,337.886475 256.182129,337.836395 255.466522,330.037933 
	C254.854752,323.371246 255.059937,316.747253 255.332703,310.079376 
	C255.513519,305.658569 257.337677,304.579742 261.507111,304.600922 
	C291.837463,304.754883 322.168945,304.688782 353.000061,304.692078 
z"/>
<path fill="#000000" opacity="1.000000" stroke="none" 
	d="
M405.410980,264.492249 
	C410.471832,266.323883 415.124390,268.139862 419.862335,269.696014 
	C423.400421,270.858032 424.787537,272.299744 422.705261,276.179688 
	C419.641876,281.887726 417.257507,287.951202 415.910126,294.343170 
	C415.084229,298.261322 413.286835,299.508423 409.188110,297.978973 
	C384.243530,288.670624 359.228058,279.552338 334.233459,270.378113 
	C313.455719,262.751740 292.706299,255.045868 271.868195,247.587952 
	C267.508331,246.027588 266.029022,244.233017 268.069092,239.608429 
	C270.614136,233.838974 272.503418,227.773209 274.540497,221.789307 
	C275.797455,218.097061 277.897003,217.567429 281.435028,218.879196 
	C318.389954,232.580902 355.386963,246.169006 392.375000,259.781372 
	C396.588135,261.331909 400.817505,262.838257 405.410980,264.492249 
z"/>
<path fill="#000000" opacity="1.000000" stroke="none" 
	d="
M404.471069,209.507538 
	C417.492615,220.453827 430.220062,231.197357 443.016449,241.858154 
	C445.369446,243.818405 445.521576,245.410355 443.229858,247.523224 
	C438.806976,251.600861 435.018616,256.269653 431.534058,261.152252 
	C429.644135,263.800446 428.056946,264.091064 425.489838,261.910492 
	C387.782532,229.880859 350.048645,197.882187 312.206573,166.012100 
	C308.999969,163.311554 308.730164,161.419250 311.513794,158.396866 
	C314.894226,154.726501 318.107422,150.865250 321.039825,146.829956 
	C323.713135,143.151154 325.945679,142.888382 329.495148,145.939850 
	C347.051605,161.033051 364.792999,175.911148 382.467072,190.867584 
	C389.714386,197.000549 396.956299,203.139862 404.471069,209.507538 
z"/>
<path fill="#000000" opacity="1.000000" stroke="none" 
	d="
M468.018799,214.013519 
	C469.668823,216.940903 470.969574,219.666550 472.653931,222.129868 
	C474.771149,225.226181 473.659210,226.818710 470.678955,228.286148 
	C466.953583,230.120499 463.168579,231.977463 459.820374,234.394150 
	C456.366028,236.887482 454.556915,236.463242 452.459961,232.725342 
	C442.524414,215.014832 432.372131,197.425720 422.265594,179.811401 
	C407.770447,154.548309 393.316498,129.261002 378.657074,104.093468 
	C376.656006,100.657997 376.945831,98.813293 380.412292,97.005585 
	C384.096344,95.084404 387.714966,92.986015 391.147919,90.650116 
	C394.406738,88.432686 396.301697,88.975609 398.236816,92.442879 
	C405.130768,104.795090 412.265442,117.012978 419.314850,129.278336 
	C435.488037,157.418365 451.664612,185.556458 468.018799,214.013519 
z"/>
<path fill="#000000" opacity="1.000000" stroke="none" 
	d="
M486.820007,97.310883 
	C492.528931,129.492722 498.159271,161.249619 503.778259,193.008514 
	C504.907593,199.391388 505.975830,205.785080 507.106689,212.167679 
	C507.752472,215.812378 507.210114,218.486679 502.638550,218.512161 
	C501.161316,218.520401 499.689728,219.009048 498.210358,219.245285 
	C488.694214,220.764908 488.729401,220.755890 487.136627,211.343918 
	C483.279419,188.551102 479.437805,165.755417 475.492310,142.977814 
	C471.235962,118.405540 467.000519,93.827888 462.429016,69.313568 
	C461.598450,64.859619 463.290863,63.535934 466.951996,63.010029 
	C468.432617,62.797348 469.946869,62.817661 471.426758,62.601524 
	C480.786499,61.234493 480.681458,61.238850 482.129211,70.341629 
	C483.539642,79.209946 485.191559,88.039864 486.820007,97.310883 
z"/>
<path fill="#000000" opacity="1.000000" stroke="none" 
	d="
M558.459595,136.407349 
	C554.532593,158.630844 550.695801,180.427704 546.870605,202.226593 
	C546.036865,206.977951 545.232605,211.734573 544.437195,216.492523 
	C543.919556,219.589340 542.136841,220.748993 539.103455,220.072845 
	C538.778381,220.000381 538.452698,219.929108 538.125183,219.868988 
	C526.165771,217.674393 526.303650,217.698868 528.408569,205.740738 
	C533.047546,179.385574 537.500732,152.997803 542.091919,126.634163 
	C545.456848,107.311714 548.882568,87.999626 552.358948,68.696938 
	C553.752869,60.957325 553.843628,60.996487 561.498840,62.439533 
	C563.292969,62.777748 565.146362,62.807301 566.935852,63.163395 
	C569.617188,63.696972 570.864807,65.130554 570.334290,68.140244 
	C566.349792,90.743797 562.467896,113.365448 558.459595,136.407349 
z"/>
<path fill="#000000" opacity="1.000000" stroke="none" 
	d="
M601.058594,159.111603 
	C613.652649,137.147156 626.113281,115.527428 638.392944,93.805336 
	C640.260132,90.502419 642.009888,90.202217 645.129395,91.997673 
	C655.201233,97.794678 655.298706,97.744736 649.607910,107.693741 
	C626.066956,148.849182 602.472290,189.973862 578.966492,231.149338 
	C577.054260,234.499023 575.432251,235.645584 571.608643,233.240234 
	C562.021851,227.209412 561.895935,227.413208 567.607788,217.448990 
	C578.695129,198.107620 589.780273,178.765030 601.058594,159.111603 
z"/>
<path fill="#000000" opacity="1.000000" stroke="none" 
	d="
M642.680115,226.718750 
	C630.464722,237.046158 618.500916,247.119934 606.602478,257.270264 
	C601.972412,261.220093 601.721313,261.271240 598.156921,256.525085 
	C592.978821,249.630234 592.917053,249.557190 599.649353,243.863068 
	C636.250916,212.905884 672.902405,182.007751 709.471924,151.012909 
	C712.027527,148.846893 713.740479,148.595291 716.096680,151.257019 
	C722.883362,158.923615 722.944214,158.827347 714.606812,165.874603 
	C690.714050,186.070099 666.839478,206.287109 642.680115,226.718750 
z"/>
</svg>